<?xml version="1.0" encoding="UTF-8" standalone="no" ?>
<!DOCTYPE svg PUBLIC "-//W3C//DTD SVG 1.1//EN" "http://www.w3.org/Graphics/SVG/1.1/DTD/svg11.dtd">
<svg xmlns="http://www.w3.org/2000/svg" xmlns:xlink="http://www.w3.org/1999/xlink" version="1.1" width="1280" height="1024" viewBox="0 0 1280 1024" xml:space="preserve">
<desc>Created with Fabric.js 5.3.0</desc>
<defs>
</defs>
<g transform="matrix(1 0 0 1 640 512)" id="background-logo"  >
<rect style="stroke: none; stroke-width: 0; stroke-dasharray: none; stroke-linecap: butt; stroke-dashoffset: 0; stroke-linejoin: miter; stroke-miterlimit: 4; fill: rgb(255,255,255); fill-opacity: 0; fill-rule: nonzero; opacity: 1;"  paint-order="stroke"  x="-640" y="-512" rx="0" ry="0" width="1280" height="1024" />
</g>
<g transform="matrix(1.9211538461538462 0 0 1.9211538461538462 702.117274587146 614.9066720041623)" id="text-logo"  >
<g style=""  paint-order="stroke"   >
		<g transform="matrix(1 0 0 1 5.684342e-14 0)" id="text-logo-path-0"  >
<path style="stroke: none; stroke-width: 2.4583333333333344; stroke-dasharray: none; stroke-linecap: butt; stroke-dashoffset: 0; stroke-linejoin: miter; stroke-miterlimit: 4; fill: rgb(255,190,88); fill-rule: nonzero; opacity: 1;"  paint-order="stroke"  transform=" translate(-270.51251976367456, 38.64499999999998)" d="M 177.88 -192.93 C 175.82 -195.58 173.16 -196.76 170.22 -196.76 C 158.71 -196.76 143.96 -185.85 124.78 -163.13 C 110.63 -146.32 94.1 -123.31 74.93 -93.52 C 64.31 -76.99 54.28 -60.47 45.72 -46.02 L 77.88 -147.2 C 78.77 -150.45 77.29 -154.28 73.75 -155.47 C 70.5 -156.35 66.67 -154.88 65.49 -151.04 L 15.04 7.96 C 14.16 10.91 15.93 14.75 18.58 15.93 C 21.54 17.11 25.07 16.22 26.84 12.98 C 27.14 12.68 53.98 -37.17 85.84 -86.73 C 104.43 -115.64 120.95 -138.35 134.81 -154.88 C 153.1 -176.7 163.43 -182.31 167.85 -183.49 C 168.15 -181.72 168.44 -177 167.85 -168.44 C 166.97 -159.59 164.91 -146.91 161.66 -131.57 C 156.64 -105.91 148.09 -71.09 136.88 -29.5 C 117.7 41.59 96.76 110.03 96.46 110.92 C 95.28 114.75 97.05 118 100.59 119.18 C 101.18 119.18 102.07 119.47 102.66 119.47 C 105.02 119.47 107.97 117.7 108.85 114.75 C 108.85 114.46 130.69 43.66 149.86 -28.02 C 161.36 -70.8 169.63 -105.02 174.94 -131.28 C 177.88 -146.61 179.95 -159.59 180.83 -169.33 C 181.72 -181.42 181.13 -188.5 177.88 -192.93 Z M 228.63 -58.7 C 229.8 -57.52 231.28 -57.23 232.75 -57.23 C 234.82 -57.23 236.59 -57.82 237.77 -59.29 C 238.95 -60.77 245.14 -68.44 246.91 -74.93 C 247.8 -78.17 246.03 -81.71 242.49 -82.6 C 238.95 -83.78 235.41 -81.71 234.52 -78.17 C 233.94 -75.52 230.1 -70.5 228.03 -67.85 C 225.67 -64.9 225.97 -61.06 228.63 -58.7 Z M 257.53 -33.92 C 254.58 -35.99 250.75 -35.4 248.39 -32.45 C 248.39 -32.45 243.96 -26.84 237.47 -20.95 C 229.21 -13.86 221.25 -10.03 215.05 -10.03 L 213.58 -10.03 C 213.28 -10.91 213.28 -14.75 217.71 -24.48 C 220.95 -31.27 225.08 -37.76 226.85 -40.12 C 228.92 -43.07 228.33 -47.2 225.38 -49.27 C 222.43 -51.33 218.59 -50.45 216.53 -47.79 C 214.17 -44.54 209.74 -37.46 205.91 -29.79 C 200.3 -17.99 199.13 -9.73 202.07 -3.83 C 203.55 -1.47 207.09 2.95 215.05 2.95 C 237.47 2.95 257.83 -23.6 258.71 -24.78 C 260.78 -27.73 260.49 -31.56 257.53 -33.92 Z M 424.8 -101.18 C 401.2 -103.84 367.87 -104.13 325.97 -102.95 C 332.76 -120.95 337.48 -132.16 337.48 -132.16 C 338.66 -135.41 337.19 -139.24 333.94 -140.72 C 330.69 -141.89 326.86 -140.42 325.38 -137.17 L 312.11 -102.36 C 280.55 -101.18 256.36 -99.41 256.06 -99.41 C 252.52 -99.12 249.87 -96.17 250.16 -92.63 C 250.45 -89.09 253.11 -86.44 256.65 -86.44 L 256.94 -86.44 C 257.53 -86.73 278.77 -88.2 307.09 -89.38 L 298.25 -64.31 C 284.68 -26.25 266.38 29.2 256.06 75.22 C 255.17 78.77 257.53 82.01 260.78 82.89 L 262.25 82.89 C 265.2 82.89 267.86 80.83 268.75 77.88 C 278.77 32.45 296.77 -22.13 310.34 -60.18 L 321.25 -89.97 C 354.88 -91.16 394.71 -91.45 423.62 -88.5 C 427.16 -88.2 430.4 -90.86 430.7 -94.4 C 431 -97.94 428.34 -100.89 424.8 -101.18 Z M 383.8 -58.7 C 384.98 -57.52 386.45 -57.23 387.93 -57.23 C 389.99 -57.23 391.76 -57.82 392.94 -59.29 C 394.12 -60.77 400.31 -68.44 402.08 -74.93 C 402.97 -78.17 401.2 -81.71 397.66 -82.6 C 394.12 -83.78 390.58 -81.71 389.69 -78.17 C 389.11 -75.52 385.27 -70.5 383.2 -67.85 C 380.85 -64.9 381.14 -61.06 383.8 -58.7 Z M 412.7 -33.92 C 409.75 -35.99 405.92 -35.4 403.56 -32.45 C 403.56 -32.45 399.13 -26.84 392.64 -20.95 C 384.38 -13.86 376.42 -10.03 370.23 -10.03 L 368.75 -10.03 C 368.45 -10.91 368.45 -14.75 372.88 -24.48 C 376.13 -31.27 380.25 -37.76 382.02 -40.12 C 384.09 -43.07 383.5 -47.2 380.55 -49.27 C 377.6 -51.33 373.76 -50.45 371.7 -47.79 C 369.34 -44.54 364.92 -37.46 361.08 -29.79 C 355.48 -17.99 354.3 -9.73 357.25 -3.83 C 358.72 -1.47 362.26 2.95 370.23 2.95 C 392.64 2.95 413 -23.6 413.88 -24.78 C 415.95 -27.73 415.65 -31.56 412.7 -33.92 Z M 522.15 -35.1 C 518.9 -36.28 515.07 -34.81 513.89 -31.56 C 513.89 -31.56 510.94 -25.07 505.93 -18.29 C 501.8 -12.98 495.31 -6.49 487.93 -6.49 C 487.93 -9.44 490.58 -16.52 492.06 -20.36 C 495.6 -30.38 498.55 -38.64 494.42 -44.84 C 493.54 -46.31 490.58 -48.97 485.27 -48.97 C 477.9 -48.97 468.75 -43.36 457.55 -31.27 L 464.04 -49.56 C 465.22 -52.8 463.44 -56.64 459.91 -57.82 C 456.66 -59 453.12 -57.23 451.94 -53.69 L 432.18 1.47 C 431.29 4.42 432.47 7.96 435.42 9.44 C 436.31 9.73 437.49 10.03 438.37 10.03 C 440.44 10.03 442.5 9.14 443.68 7.08 C 443.68 7.08 451.35 -4.42 460.79 -15.34 C 473.18 -30.38 480.26 -34.52 483.5 -35.7 L 479.97 -24.78 C 476.13 -14.75 472.59 -5.01 477.31 1.47 C 478.79 3.83 481.74 6.49 487.63 6.49 C 511.24 6.49 525.1 -25.07 525.69 -26.55 C 527.16 -29.79 525.39 -33.63 522.15 -35.1 Z" stroke-linecap="round" />
</g>
</g>
</g>
</svg>